<!DOCTYPE svg PUBLIC "-//W3C//DTD SVG 1.1//EN" "http://www.w3.org/Graphics/SVG/1.1/DTD/svg11.dtd">
<!-- Uploaded to: SVG Repo, www.svgrepo.com, Transformed by: SVG Repo Mixer Tools -->
<svg width="256px" height="256px" viewBox="-2.4 -2.4 28.80 28.80" fill="none" xmlns="http://www.w3.org/2000/svg">
<g id="SVGRepo_bgCarrier" stroke-width="0">
<path transform="translate(-2.4, -2.4), scale(0.8999999999999999)" d="M16,30.82028937126909C18.36001361818879,31.328775193694653,21.11286490634813,30.821682468994187,22.968531465211203,29.277427395516483C24.81907611169815,27.7374346929561,24.452516793433453,24.757042468879614,25.734604428117496,22.719312283214446C26.94511409658407,20.795347006003293,29.402233896644823,19.843537525278457,30.234867411765098,17.728425832042447C31.133678789100305,15.445204679287574,31.76865246038631,12.61211107805328,30.552317198732347,10.481034060282292C29.309163695463322,8.302970212346423,26.242328041823594,8.1360945365532,24.057353250181286,6.9051282826441405C22.323990680010933,5.928590320819417,20.85591096358727,4.5851794635353755,18.968792878944527,3.9551338102953455C16.98423596693477,3.2925565894025084,14.855409299693243,2.6154976271589456,12.83480377624983,3.1582941169060295C10.822135406533562,3.698958444223736,9.489824088721056,5.509156048938198,7.951209714355658,6.914793871524948C6.432977725175723,8.301810880470178,4.987019529328857,9.684409163034076,3.8302470303559204,11.384621485566925C2.4398109692393986,13.428270108700083,0.11748113748083983,15.439636700126476,0.48847832125259494,17.883439725028587C0.8623111553898171,20.345921519592086,3.7426388530008823,21.527433639277092,5.618743687044416,23.165663851461634C7.125436799458584,24.48132070200519,8.83744212806742,25.392546084474844,10.447379532032716,26.579634387294796C12.349469247862135,27.982141371115326,13.689760909394387,30.32252791136369,16,30.82028937126909" fill="#0b274c" strokewidth="0"/>
</g>
<g id="SVGRepo_tracerCarrier" stroke-linecap="round" stroke-linejoin="round"/>
<g id="SVGRepo_iconCarrier"> <path d="M13 15H16" stroke="#a3e8f5" stroke-width="2" stroke-linecap="round"/> <path d="M8 15L10.5 12.5V12.5C10.7761 12.2239 10.7761 11.7761 10.5 11.5V11.5L8 9" stroke="#a3e8f5" stroke-width="2" stroke-linecap="round" stroke-linejoin="round"/> <path d="M3 8C3 6.11438 3 5.17157 3.58579 4.58579C4.17157 4 5.11438 4 7 4H12H17C18.8856 4 19.8284 4 20.4142 4.58579C21 5.17157 21 6.11438 21 8V12V16C21 17.8856 21 18.8284 20.4142 19.4142C19.8284 20 18.8856 20 17 20H12H7C5.11438 20 4.17157 20 3.58579 19.4142C3 18.8284 3 17.8856 3 16V12V8Z" stroke="#a3e8f5" stroke-width="2" stroke-linejoin="round"/> </g>
</svg>